<svg xmlns="http://www.w3.org/2000/svg" viewBox="0 0 720 540" role="img" aria-labelledby="title desc">
  <title id="title">Рабочее место ученика</title>
  <desc id="desc">Ноутбук, карточки с кодом и декоративные элементы онлайн-обучения.</desc>
  <rect width="720" height="540" rx="48" fill="#ffffff"/>
  <circle cx="120" cy="92" r="56" fill="#14c8a8" opacity="0.22"/>
  <circle cx="600" cy="96" r="78" fill="#6f48ff" opacity="0.18"/>
  <rect x="96" y="154" width="528" height="284" rx="30" fill="#172033"/>
  <rect x="132" y="192" width="456" height="198" rx="18" fill="#eef5ff"/>
  <rect x="172" y="230" width="170" height="22" rx="11" fill="#2457d6"/>
  <rect x="172" y="274" width="292" height="16" rx="8" fill="#b9c6e8"/>
  <rect x="172" y="306" width="232" height="16" rx="8" fill="#b9c6e8"/>
  <rect x="172" y="338" width="310" height="16" rx="8" fill="#14c8a8" opacity="0.65"/>
  <path d="M266 438h188l22 44H244l22-44Z" fill="#6f48ff"/>
  <rect x="214" y="482" width="292" height="18" rx="9" fill="#172033"/>
  <rect x="476" y="232" width="72" height="72" rx="18" fill="#ffffff"/>
  <path d="M499 282l-14-16 14-16" fill="none" stroke="#2457d6" stroke-width="10" stroke-linecap="round" stroke-linejoin="round"/>
  <path d="M525 250l14 16-14 16" fill="none" stroke="#2457d6" stroke-width="10" stroke-linecap="round" stroke-linejoin="round"/>
</svg>
